<svg xmlns="http://www.w3.org/2000/svg" viewBox="0 0 455 548">
  <title>OpenDefender Shield</title>
  <path fill-rule="evenodd" fill="#2D8EA5" stroke="none"  opacity="1" d="M 222.5 12 L 230.5 12 L 235 14 Q 234.5 17.3 238 18.5 L 239 21.5 L 239 26.5 L 237 31.5 L 233.5 35 L 212.5 52 Q 203.4 56.4 196.5 63 L 181.5 72 L 179.5 72 L 177.5 74 L 163.5 81 L 161.5 81 L 157.5 84 L 155.5 84 L 150.5 87 L 147.5 87 L 145.5 89 L 140.5 90 L 134.5 93 L 131.5 93 L 125.5 96 L 122.5 96 L 119.5 98 L 115.5 98 L 108.5 101 L 104.5 101 L 97.5 104 L 92.5 104 L 84.5 107 L 77.5 107 L 76.5 108 L 68.5 109 L 67.5 110 L 56.5 110 L 55.5 111 L 40.5 112 L 39.5 113 L 35 113 L 35 266.5 L 36 267.5 L 36 276.5 L 37 277.5 L 37 284.5 L 38 285.5 L 38 293.5 L 39 294.5 L 39 298.5 L 41 303.5 L 41 308.5 L 46 323.5 L 46 327.5 L 49 333.5 L 49 336.5 L 52 341.5 L 52 344.5 L 54 346.5 L 55 351.5 L 58 355.5 L 58 357.5 L 65 371.5 L 67 373.5 L 70 380.5 L 77 390.5 L 78 393.5 L 96 416.5 L 96 418 Q 98.7 416.9 98 419.5 L 104 425.5 L 104 427 L 107 428.5 L 121.5 444 L 124 445.5 Q 123.3 447.8 125.5 447 L 131.5 453 L 133 453 Q 131.9 455.7 134.5 455 L 144.5 464 L 160.5 476 L 167 479 Q 165.9 481.7 168.5 481 L 197.5 499 L 199.5 499 L 203.5 502 L 205.5 502 L 207.5 504 L 209.5 504 L 213.5 507 L 215.5 507 L 220.5 510 L 222.5 510 L 225.5 512 L 228.5 512 L 244.5 504 L 246.5 504 L 248.5 502 L 252.5 501 L 263.5 494 L 267.5 493 L 270.5 490 L 272.5 490 L 275.5 487 L 278.5 486 L 293.5 476 L 313.5 461 L 323.5 452 L 325 452 Q 323.9 449.3 326.5 450 L 332.5 444 L 334 444 L 335.5 441 Q 337.8 441.8 337 439.5 L 340 438 L 340 436.5 L 357 418.5 L 361 413.5 L 361 412 Q 363.7 413.1 363 410.5 L 380 387.5 L 381 384.5 L 388 374.5 L 388 372.5 L 397 356.5 L 397 354.5 L 403 342.5 L 403 339.5 L 405 336.5 L 406 330.5 L 409 324.5 L 412 309.5 L 414 305.5 L 414 299.5 L 415 298.5 L 416 288.5 L 417 287.5 L 417 275.5 L 418 274.5 L 418 148.5 L 419 147.5 L 419 113 L 414.5 113 L 413.5 112 L 398.5 111 L 397.5 110 L 387.5 110 L 382.5 108 L 371.5 107 L 362.5 104 L 357.5 104 L 353.5 102 L 345.5 101 L 342.5 99 L 335.5 98 L 326.5 95 L 323.5 93 L 317.5 92 L 307.5 87 L 304.5 87 L 300.5 84 L 291.5 81 L 289.5 79 L 285.5 78 L 283.5 76 L 279.5 75 L 271.5 70 L 268 70 Q 269.1 72.7 266.5 72 L 265 75 L 263.5 75 L 247.5 90 L 243.5 93 L 242 93 Q 243.1 95.7 240.5 95 L 229.5 104 L 223.5 107 L 220.5 110 L 214.5 113 L 203.5 121 L 201.5 121 L 192.5 127 L 190.5 127 L 188.5 129 L 184.5 130 L 174.5 136 L 172.5 136 L 167.5 139 L 165.5 139 L 163.5 141 L 158.5 142 L 155.5 144 L 142.5 148 L 139.5 150 L 133.5 151 L 130.5 153 L 126.5 153 L 109.5 159 L 104.5 159 L 100.5 161 L 92.5 162 L 91 163.5 L 92 166.5 Q 89.8 167.8 91 172.5 L 92 175.5 L 91 177.5 Q 93 178.5 92 182.5 L 91 183.5 L 91 249.5 L 92 250.5 L 92 271.5 L 93 272.5 L 93 282.5 L 94 283.5 L 95 294.5 L 98 303.5 L 98 307.5 L 101 313.5 L 101 317.5 Q 104 320.5 104 326.5 L 107 331.5 L 107 334.5 L 110 338.5 L 110 340.5 L 118 356.5 L 124 366.5 L 127 369.5 L 127 372 Q 129.7 370.9 129 373.5 Q 142.7 393.3 160.5 409 L 170 416.5 Q 169.3 418.8 171.5 418 L 202.5 441 L 217.5 450 L 225.5 454 L 227.5 454 L 232.5 452 L 234.5 450 L 238.5 449 L 250.5 441 L 253 441 Q 251.9 438.3 254.5 439 L 272.5 427 L 280.5 420 L 282 420 Q 280.9 417.3 283.5 418 Q 284.8 414.5 288 415 Q 286.9 412.3 289.5 413 L 312.5 389 Q 314.8 389.8 314 387.5 L 325 374.5 L 328 368.5 L 334 360.5 L 334 358.5 L 337 355.5 L 337 353.5 L 339 351.5 L 340 347.5 L 342 345.5 L 342 343.5 L 345 339.5 L 345 337.5 L 348 332.5 L 357 305.5 L 357 300.5 L 358 299.5 L 359 291.5 L 360 290.5 L 361 275.5 L 362 274.5 L 362 162 L 350.5 160 L 349.5 159 L 344.5 159 L 337.5 156 L 334.5 156 L 327.5 153 L 321.5 152 L 318.5 150 L 314.5 150 L 309.5 147 L 306.5 147 L 303.5 145 L 298.5 144 L 296.5 142 L 291.5 141 L 281.5 136 L 279.5 136 L 275.5 133 L 273.5 133 L 269.5 130 L 267.5 130 L 263.5 127 L 261.5 127 L 257.5 124 L 256 124 L 256 122.5 L 253 118.5 L 253 111.5 L 258.5 104 L 260.5 103 L 269.5 103 L 282.5 110 L 284.5 110 L 288.5 113 L 290.5 113 L 292.5 115 L 294.5 115 L 306.5 121 L 309.5 121 L 314.5 124 L 317.5 124 L 320.5 126 L 329.5 129 L 332.5 129 L 339.5 132 L 342.5 132 L 346.5 134 L 355.5 135 L 364.5 138 L 370.5 138 L 371.5 139 L 374.5 139 L 383 142 Q 382.5 145.3 386 146.5 L 387 157.5 L 388 158.5 L 387 159.5 L 387 263.5 L 386 264.5 L 386 282.5 L 385 283.5 L 385 287.5 L 383 293.5 L 383 299.5 L 382 300.5 L 382 303.5 L 381 304.5 L 378 319.5 L 375 326.5 L 375 329.5 L 370 340.5 L 369 345.5 L 366 349.5 L 366 351.5 L 354 374.5 L 332.5 404 Q 330.3 403.3 331 405.5 L 324.5 413 Q 322.3 412.3 323 414.5 L 311 425.5 Q 311.8 427.8 309.5 427 L 308 430 L 306.5 430 L 296.5 439 L 292.5 442 L 291 442 L 291 444 L 288 444 Q 289.1 446.7 286.5 446 L 270.5 458 L 250.5 470 L 243.5 473 L 241.5 475 L 237.5 476 L 233.5 479 Q 230.3 478.3 229.5 480 L 223.5 480 L 194.5 465 L 191.5 462 L 180.5 456 L 171.5 449 L 170 449 L 170 447 L 167 447 Q 168.1 444.3 165.5 445 Q 149.1 432.9 135 418.5 L 124 406.5 L 121 402.5 L 121 401 L 118 399.5 L 101 375.5 L 95 365.5 L 95 363.5 L 93 361.5 L 88 351.5 L 88 349.5 L 86 347.5 L 86 345.5 L 83 340.5 L 83 337.5 L 81 334.5 L 77 322.5 L 77 319.5 L 75 315.5 L 75 311.5 L 72 302.5 L 72 296.5 L 71 295.5 L 70 287.5 L 69 286.5 L 69 273.5 L 68 272.5 L 68 263.5 L 67 262.5 L 67 150.5 L 69 145.5 L 73.5 141 L 79.5 139 L 83.5 139 L 84.5 138 L 91.5 138 L 95.5 136 L 104.5 135 L 108.5 133 L 115.5 132 L 122.5 129 L 125.5 129 L 128.5 127 L 134.5 126 L 137.5 124 L 140.5 124 L 145.5 121 L 148.5 121 L 152.5 118 L 155.5 118 L 166.5 112 L 168.5 112 L 172.5 109 L 174.5 109 L 187.5 101 L 189.5 101 L 192.5 98 L 194.5 98 L 197.5 95 L 200.5 94 L 223.5 78 L 231.5 71 L 233 71 Q 231.9 68.3 234.5 69 Q 235.8 65.5 239 66 L 240.5 63 L 261.5 43 Q 264.8 43.8 265.5 42 L 271.5 42 L 276.5 44 L 288.5 52 L 290.5 52 L 296.5 55 L 298.5 57 L 300.5 57 L 325.5 69 L 328.5 69 L 333.5 72 L 336.5 72 L 342.5 75 L 346.5 75 L 350.5 77 L 357.5 78 L 361.5 80 L 370.5 81 L 374.5 83 L 381.5 83 L 382.5 84 L 386.5 84 L 392.5 86 L 403.5 86 L 404.5 87 L 422.5 88 L 423.5 89 L 435.5 89 L 441 93.5 L 443 96.5 Q 442 100.5 444 101.5 L 444 252.5 L 442 256.5 L 443 257.5 L 443 273.5 L 442 274.5 L 442 281.5 L 441 282.5 L 441 293.5 L 438 302.5 L 438 308.5 L 435 317.5 L 435 322.5 L 432 329.5 L 431 335.5 L 429 338.5 L 429 341.5 L 426 350.5 L 418 367.5 L 418 369.5 L 416 371.5 L 415 375.5 L 413 377.5 Q 412.2 382.2 409 384.5 L 409 386.5 L 397 406.5 L 380 429.5 L 371 439.5 L 371 441 Q 368.3 439.9 369 442.5 L 366 444 L 366 445.5 L 346.5 465 L 310.5 494 L 295.5 504 L 292.5 505 L 289.5 508 L 284.5 511 L 282.5 511 L 279.5 514 L 277.5 514 L 270.5 519 L 268.5 519 L 264.5 522 L 262.5 522 L 260.5 524 L 256.5 525 L 254.5 527 L 250.5 528 L 248.5 530 Q 242.9 530.9 239.5 534 L 237.5 534 L 232.5 537 L 220.5 537 L 218.5 535 L 213.5 534 L 211.5 532 L 207.5 531 L 203.5 528 L 201.5 528 L 197.5 525 L 195.5 525 L 191.5 522 L 187.5 521 L 185.5 519 L 178.5 516 L 158.5 504 L 130.5 484 L 116.5 472 L 115 472 Q 116.1 469.3 113.5 470 L 106 463.5 Q 106.8 461.3 104.5 462 L 103 459 L 101 459 Q 102.1 456.3 99.5 457 L 98 454 L 95 452.5 L 94.5 451 L 93 451.5 L 93.5 450 Q 91.3 450.8 92 448.5 L 89 447 L 89 445.5 L 81 437.5 L 63 414.5 L 43 382.5 L 43 380.5 L 37 370.5 L 37 368.5 L 34 363.5 L 34 361.5 L 31 356.5 L 28 346.5 L 26 343.5 L 26 340.5 L 23 334.5 L 23 330.5 L 20 324.5 L 20 319.5 L 17 312.5 L 17 307.5 L 16 306.5 L 15 298.5 L 14 297.5 L 14 288.5 L 13 287.5 Q 14.2 282.8 12 281.5 L 12 271.5 L 11 270.5 L 11 97.5 L 16.5 90 L 18.5 89 L 29.5 89 L 30.5 88 L 51.5 87 L 52.5 86 L 63.5 86 L 64.5 85 L 72.5 84 L 73.5 83 L 80.5 83 L 88.5 80 L 93.5 80 L 97.5 78 L 104.5 77 L 107.5 75 L 111.5 75 L 117.5 72 L 120.5 72 L 125.5 69 L 128.5 69 L 133.5 66 L 136.5 66 L 141.5 63 L 143.5 63 L 155.5 57 L 157.5 57 L 161.5 54 L 163.5 54 L 170.5 49 L 172.5 49 L 182.5 43 L 202.5 28 L 207 26 L 208.5 23 L 222.5 12 Z " />
  <path fill-rule="evenodd" fill="#2D8EA5" stroke="none"  opacity="1" d="M 415.5 264 Q 417 265 414.5 266 Q 413 265 415.5 264 Z " />
</svg>