<svg xmlns="http://www.w3.org/2000/svg" viewBox="0 0 1820 2192">
  <title>OpenDefender Shield</title>
  <g transform="translate(0,2192) scale(0.1,-0.1)" fill="#2D8EA5" stroke="none">
    <path d="M8944 21376 c-73 -23 -149 -74 -238 -157 -47 -44 -98 -90 -113 -102
-16 -12 -71 -60 -123 -107 -52 -47 -120 -105 -150 -128 -30 -23 -107 -82 -170
-132 -164 -129 -492 -368 -584 -425 -18 -11 -47 -31 -66 -45 -127 -94 -680
-416 -965 -562 -177 -91 -732 -348 -751 -348 -3 0 -51 -19 -107 -43 -56 -24
-129 -54 -162 -66 -33 -12 -76 -29 -95 -38 -36 -16 -259 -99 -550 -205 -91
-33 -232 -80 -315 -104 -82 -25 -188 -56 -235 -70 -170 -51 -427 -123 -515
-144 -49 -11 -115 -27 -145 -35 -62 -16 -267 -61 -320 -70 -19 -3 -62 -12 -95
-20 -60 -13 -150 -31 -235 -46 -25 -4 -97 -16 -160 -27 -63 -11 -140 -23 -170
-27 -30 -3 -89 -13 -130 -20 -69 -13 -124 -19 -375 -46 -257 -28 -414 -41
-655 -54 -146 -9 -319 -20 -385 -25 -66 -5 -157 -9 -202 -9 -233 -2 -400 -157
-427 -396 -4 -27 -8 -1389 -11 -3025 -5 -3316 -3 -3458 55 -4140 25 -285 61
-559 116 -875 39 -224 119 -569 216 -930 11 -38 30 -110 42 -160 13 -49 44
-153 69 -230 25 -77 50 -156 55 -175 14 -50 153 -438 196 -550 162 -413 494
-1102 731 -1515 32 -55 69 -120 83 -145 14 -25 53 -88 87 -140 34 -52 84 -129
110 -170 212 -330 494 -723 740 -1029 55 -68 120 -150 145 -182 409 -520 1266
-1373 1760 -1751 30 -23 80 -63 110 -89 30 -25 76 -61 101 -80 26 -19 118 -90
205 -159 163 -128 389 -297 504 -376 36 -24 110 -76 165 -114 190 -133 421
-284 635 -415 80 -48 161 -98 180 -111 53 -34 272 -164 277 -164 3 0 35 -18
71 -39 153 -89 513 -282 737 -395 230 -116 293 -146 590 -286 136 -64 382
-168 450 -191 52 -17 219 -17 270 0 167 56 532 212 781 335 105 51 201 97 214
101 13 4 46 21 74 37 28 17 85 47 126 67 222 109 523 273 863 470 81 47 160
92 175 100 15 8 50 28 77 46 28 18 68 42 90 55 52 31 174 110 353 230 78 52
166 111 196 130 81 53 245 169 296 210 25 19 63 48 85 63 92 63 207 151 490
376 554 441 825 681 1275 1132 384 384 537 553 845 939 94 118 177 226 184
238 7 13 27 40 46 60 18 21 45 56 61 78 43 62 177 250 230 324 112 155 292
433 433 667 83 139 151 256 151 259 0 4 18 36 41 72 43 68 80 137 211 392 44
85 83 160 87 165 5 6 15 28 24 50 13 35 45 104 147 320 34 72 148 349 218 530
132 341 307 918 393 1295 100 437 214 1068 239 1315 6 55 15 134 20 175 18
128 40 595 51 1065 6 277 9 1546 7 3305 l-3 2855 -23 74 c-34 110 -90 184
-179 236 -60 36 -192 65 -298 65 -49 1 -139 5 -200 10 -60 5 -182 14 -270 20
-155 10 -384 30 -570 50 -49 5 -157 17 -240 25 -82 9 -190 22 -240 30 -49 8
-112 17 -140 21 -214 25 -923 164 -1140 224 -212 57 -263 71 -291 80 -16 5
-50 14 -75 19 -24 5 -80 21 -124 34 -44 13 -144 43 -223 66 -232 68 -622 210
-882 321 -63 27 -171 72 -240 100 -143 59 -152 63 -318 142 -67 32 -125 58
-128 58 -15 0 -488 243 -555 286 -20 12 -52 29 -72 37 -33 14 -91 48 -307 177
-275 164 -416 201 -579 150 -92 -29 -168 -88 -321 -250 -354 -373 -840 -808
-1236 -1105 -29 -22 -104 -79 -166 -126 -115 -87 -241 -181 -313 -232 -49 -35
-484 -322 -597 -395 -111 -70 -244 -150 -293 -176 -22 -12 -58 -33 -81 -48
-22 -14 -81 -47 -130 -73 -49 -26 -93 -50 -99 -55 -11 -8 -255 -136 -452 -235
-213 -109 -581 -279 -693 -320 -19 -7 -84 -34 -145 -60 -114 -47 -254 -103
-435 -173 -58 -22 -215 -76 -350 -121 -345 -114 -353 -117 -470 -150 -58 -16
-184 -52 -280 -79 -96 -28 -191 -53 -210 -57 -19 -4 -57 -13 -85 -21 -65 -18
-388 -91 -440 -99 -22 -4 -54 -11 -71 -16 -18 -6 -54 -14 -80 -18 -27 -5 -114
-20 -194 -34 -80 -14 -192 -33 -250 -42 -180 -28 -296 -101 -379 -239 -62
-103 -63 -113 -71 -746 -11 -815 -11 -3162 0 -3490 30 -874 101 -1491 244
-2110 47 -202 99 -413 116 -470 11 -36 29 -99 41 -140 83 -291 192 -607 284
-825 26 -60 52 -126 60 -145 75 -199 347 -733 513 -1010 105 -174 260 -412
378 -580 33 -47 77 -110 99 -140 59 -85 84 -117 165 -220 41 -52 88 -113 105
-135 16 -22 54 -69 85 -105 31 -36 71 -85 90 -110 187 -244 757 -828 1102
-1128 134 -117 401 -339 483 -402 131 -101 321 -243 339 -252 11 -6 48 -32 82
-57 191 -144 479 -334 854 -566 167 -103 365 -220 520 -305 547 -303 630 -340
762 -340 99 0 215 43 470 173 251 128 275 142 516 279 358 205 683 407 892
553 58 40 156 109 218 152 155 108 198 139 287 208 43 33 96 73 119 90 23 16
95 72 162 125 109 86 156 124 314 255 414 342 1015 955 1325 1351 28 35 93
120 145 190 52 69 115 152 140 184 124 159 380 545 534 803 156 263 444 853
551 1127 141 364 198 528 303 875 134 443 268 1093 327 1585 57 485 60 610 60
2950 0 2156 -1 2209 -41 2322 -39 111 -149 219 -260 257 -60 20 -274 64 -713
147 -70 13 -283 59 -486 105 -100 23 -441 119 -640 181 -71 22 -159 49 -195
60 -36 11 -184 63 -330 115 -145 53 -276 99 -290 104 -72 23 -503 197 -670
272 -175 78 -319 147 -720 345 -168 83 -329 158 -359 166 -30 9 -91 16 -136
16 -74 0 -89 -4 -152 -35 -86 -43 -148 -107 -200 -206 l-38 -74 0 -125 c0
-122 1 -127 33 -192 40 -83 101 -137 214 -195 387 -196 655 -324 953 -453 116
-50 219 -95 230 -100 56 -24 343 -143 435 -180 58 -23 121 -48 140 -56 58 -23
232 -85 280 -99 25 -7 113 -37 195 -65 167 -58 463 -152 570 -180 39 -11 131
-38 205 -60 162 -49 322 -92 445 -120 50 -11 115 -27 145 -35 68 -18 327 -70
395 -80 58 -8 100 -28 109 -50 11 -28 6 -4009 -4 -4145 -6 -69 -15 -203 -20
-297 -5 -95 -11 -177 -14 -182 -4 -5 -10 -60 -15 -123 -15 -182 -91 -630 -143
-843 -22 -90 -40 -162 -61 -250 -21 -86 -56 -213 -72 -260 -8 -22 -23 -74 -35
-115 -12 -41 -37 -120 -56 -175 -19 -55 -48 -138 -64 -185 -33 -98 -143 -373
-190 -475 -236 -509 -371 -767 -568 -1085 -72 -115 -329 -485 -394 -565 -22
-27 -64 -81 -94 -120 -120 -155 -161 -205 -268 -330 -157 -183 -341 -382 -465
-505 -148 -146 -434 -413 -508 -474 -231 -191 -411 -336 -452 -366 -27 -19
-73 -54 -102 -77 -88 -69 -98 -77 -300 -221 -259 -184 -736 -502 -755 -502 -2
0 -27 -15 -56 -34 -56 -35 -357 -206 -364 -206 -2 0 -57 -30 -122 -67 -161
-91 -312 -163 -344 -163 -41 0 -118 38 -354 172 -373 214 -467 270 -594 353
-52 34 -135 88 -185 120 -49 32 -120 79 -157 104 -37 25 -82 55 -101 66 -58
36 -250 173 -446 320 -280 210 -290 218 -444 344 -101 83 -248 212 -441 387
-99 89 -531 525 -631 635 -145 161 -377 444 -467 570 -37 52 -82 114 -100 138
-66 88 -163 228 -216 309 -74 117 -313 523 -349 593 -10 20 -63 126 -119 235
-85 168 -145 296 -218 469 -59 137 -182 478 -216 593 -10 37 -32 110 -49 162
-29 94 -56 183 -92 310 -20 71 -89 359 -108 455 -32 155 -73 376 -81 435 -5
36 -14 86 -19 110 -6 25 -11 68 -11 96 0 28 -6 91 -14 140 -16 98 -38 378 -58
719 -19 321 -19 3915 0 3937 16 19 85 37 307 78 94 17 193 38 220 45 115 31
177 47 310 80 77 18 214 56 305 84 91 27 260 77 375 111 116 34 282 86 370
117 88 30 180 61 205 68 25 8 135 47 245 89 178 66 278 106 610 240 50 21 136
59 193 86 57 28 105 50 108 50 2 0 42 18 89 40 47 22 124 58 173 81 228 107
622 313 803 419 27 17 52 30 55 30 7 0 463 275 554 334 281 182 612 410 764
526 39 30 85 65 101 78 17 12 55 41 85 64 100 76 504 401 565 454 33 29 87 77
120 105 33 29 172 159 308 288 261 247 289 271 323 271 25 0 112 -38 198 -88
195 -111 709 -368 986 -493 204 -91 568 -242 625 -259 17 -5 86 -29 155 -55
285 -106 676 -234 915 -300 44 -12 148 -41 230 -65 83 -23 179 -48 215 -55 36
-8 121 -28 190 -45 182 -46 236 -58 325 -74 72 -13 131 -25 350 -71 91 -19
228 -43 285 -50 25 -3 110 -17 190 -30 80 -13 199 -30 265 -39 66 -8 156 -20
200 -26 44 -6 150 -17 235 -25 493 -44 597 -54 613 -60 9 -4 20 -18 23 -30 11
-42 -3 -6017 -14 -6250 -15 -304 -40 -577 -76 -825 -33 -224 -78 -499 -91
-555 -8 -33 -21 -94 -30 -135 -70 -333 -163 -675 -273 -1000 -25 -74 -60 -178
-77 -230 -33 -98 -63 -175 -96 -246 -10 -23 -19 -46 -19 -52 0 -9 -79 -220
-100 -267 -5 -11 -21 -48 -34 -82 -46 -112 -264 -559 -348 -713 -13 -25 -49
-90 -78 -145 -29 -55 -66 -119 -82 -142 -15 -23 -32 -52 -38 -65 -5 -13 -30
-54 -55 -93 -24 -38 -50 -81 -57 -95 -12 -24 -84 -135 -186 -285 -26 -38 -56
-84 -67 -101 -31 -50 -151 -219 -230 -322 -38 -52 -77 -104 -85 -115 -32 -48
-195 -264 -224 -298 -17 -20 -57 -67 -88 -105 -31 -38 -94 -113 -140 -167 -46
-54 -99 -118 -118 -142 -184 -226 -556 -615 -891 -930 -108 -102 -312 -284
-355 -317 -16 -12 -63 -52 -105 -88 -289 -249 -618 -505 -994 -772 -148 -105
-699 -473 -750 -502 -16 -9 -82 -48 -145 -87 -133 -82 -387 -229 -395 -229 -3
0 -52 -27 -109 -60 -57 -33 -107 -60 -111 -60 -4 0 -37 -18 -73 -39 -64 -37
-507 -261 -582 -294 -53 -23 -275 -125 -367 -168 -99 -47 -213 -89 -242 -89
-31 0 -206 73 -461 193 -466 218 -1117 571 -1518 824 -92 58 -189 119 -217
136 -27 17 -104 68 -170 112 -66 45 -138 93 -160 108 -145 97 -212 146 -557
405 -230 173 -271 205 -347 270 -29 26 -66 56 -81 67 -54 39 -236 191 -300
250 -36 33 -90 81 -120 106 -51 43 -87 75 -329 298 -296 270 -752 755 -999
1060 -30 36 -71 84 -91 106 -33 35 -67 79 -146 183 -11 15 -38 50 -60 77 -79
97 -206 273 -395 545 -123 178 -244 370 -367 585 -22 39 -63 109 -91 156 -55
96 -171 313 -243 459 -74 149 -219 452 -219 457 0 3 -22 55 -49 117 -27 61
-58 134 -69 161 -11 28 -39 97 -62 155 -72 179 -228 644 -275 815 -15 55 -33
120 -40 145 -8 25 -37 137 -65 250 -28 113 -57 230 -64 260 -36 140 -100 521
-135 805 -11 88 -25 198 -31 245 -6 47 -15 155 -21 240 -5 85 -14 216 -19 290
-5 77 -9 1443 -10 3155 0 2666 2 3023 15 3042 12 17 29 22 92 28 43 3 121 10
173 15 52 5 178 16 280 25 102 9 226 22 276 30 49 8 110 15 135 15 44 0 102 8
419 55 263 40 262 40 470 80 41 8 147 29 235 45 88 17 185 37 215 45 30 7 105
26 165 41 61 15 139 34 175 42 36 8 94 23 130 33 245 71 321 93 370 104 59 14
135 37 460 142 279 89 327 105 460 153 63 23 129 46 145 52 132 46 612 241
694 282 25 13 123 58 217 99 258 115 588 286 964 502 399 230 798 502 1258
860 35 28 88 68 117 90 63 48 97 76 330 271 206 173 264 232 293 296 101 229
15 494 -196 599 -60 30 -77 34 -167 36 -64 2 -115 -2 -141 -11z"/>
  </g>
</svg>