<svg xmlns="http://www.w3.org/2000/svg" viewBox="0 0 32 32" fill="none">
  <!-- Outer shield left half -->
  <path d="M16 5 C13 4 9 5 7 7.5 C4.5 10.5 4.5 15 4.5 17 C4.5 23 9 27.5 16 30"
        stroke="#2D8EA5" stroke-width="2" stroke-linecap="round" stroke-linejoin="round"/>
  <!-- Outer shield right half -->
  <path d="M16 5 C19 4 23 5 25 7.5 C27.5 10.5 27.5 15 27.5 17 C27.5 23 23 27.5 16 30"
        stroke="#2D8EA5" stroke-width="2" stroke-linecap="round" stroke-linejoin="round"/>
  <!-- Inner shield left half -->
  <path d="M16 10 C14 9.5 11.5 10 10 12 C8.5 14 8 17 8 19.5 C8 23 11 26.5 16 28"
        stroke="#2D8EA5" stroke-width="1.6" stroke-linecap="round" stroke-linejoin="round"/>
  <!-- Inner shield right half -->
  <path d="M16 10 C18 9.5 20.5 10 22 12 C23.5 14 24 17 24 19.5 C24 23 21 26.5 16 28"
        stroke="#2D8EA5" stroke-width="1.6" stroke-linecap="round" stroke-linejoin="round"/>
</svg>
